# xmcd
#
# Track frame offsets: 
#        150
#        13490
#        26409
#        40166
#        51305
#        62999
#        75887
#        86253
#        100311
#        110889
#        129497
#        145513
#        160583
#        172163
#        183481
#        195496
#        206735
#
# Disc length: 2916 seconds
#
# Revision: 0
# Processed by: cddbd v1.5.2PL0 Copyright (c) Steve Scherf et al.
# Submitted via: ExactAudioCopyFreeDBPlugin 1.0
#
DISCID=e60b6211
DTITLE=Compilations - Nostalgie Soul [CD2)
DYEAR=1900
DGENRE=Soul
TTITLE0=Jackson 5 - I Want You Back
TTITLE1=The Supremes - Stop ! In The Name Of Love
TTITLE2=Smokey Robinson and The Miracles - The Tears Of A Clown
TTITLE3=The Marvelettes - Please Mr Postman
TTITLE4=Barrett Strong - Money
TTITLE5=Stevie Wonder - My Cherie Amour
TTITLE6=Carla Thomas - Gee Whiz, Look At His Eyes
TTITLE7=The Spinners - It's A Shame
TTITLE8=Brook Benton - Thank You Pretty Baby
TTITLE9=Eddie Floyd - California Girl
TTITLE10=Minnie Ripperton - Completeness
TTITLE11=The Delfonics - La La Means, I Love You
TTITLE12=Georges Mc Crae - It's Been So Long
TTITLE13=Percy Sledge - (Sittin' On) The Dock Of The Bay
TTITLE14=The Platters - Smoke Gets In Your Eyes
TTITLE15=Sam and Dave - Land Of 1000 Dance
TTITLE16=Aaron Neville - Tell It Like It Is
EXTD=
EXTT0=
EXTT1=
EXTT2=
EXTT3=
EXTT4=
EXTT5=
EXTT6=
EXTT7=
EXTT8=
EXTT9=
EXTT10=
EXTT11=
EXTT12=
EXTT13=
EXTT14=
EXTT15=
EXTT16=
PLAYORDER=
